<svg width="195" height="61" viewBox="0 0 195 61" fill="none" xmlns="http://www.w3.org/2000/svg">
<g clip-path="url(#clip0)">
<path fill-rule="evenodd" clip-rule="evenodd" d="M24.2077 4.94095C23.5379 5.65356 23.6336 6.79375 24.3512 7.45886L35.8809 17.6255C36.5985 18.2906 37.7467 18.1956 38.4165 17.483C39.0862 16.7704 38.9905 15.6302 38.2729 14.9651L26.7432 4.75091C26.0256 4.13331 24.8774 4.18082 24.2077 4.94095Z" fill="white"/>
<path d="M23.4902 4.27584C22.9639 4.84593 22.7726 5.55855 22.7726 6.27117C22.8204 6.98378 23.1075 7.64889 23.6816 8.17148L35.1634 18.2906C35.2113 18.3381 35.2112 18.3381 35.2591 18.3381C35.8332 18.8132 36.5508 19.0508 37.2206 19.0033C37.8903 18.9557 38.608 18.6707 39.0864 18.1481C39.1342 18.1006 39.1342 18.1006 39.1821 18.0531C39.6605 17.483 39.8997 16.7704 39.8518 16.1053C39.804 15.3927 39.5169 14.7276 38.9429 14.205L27.4132 4.0383C26.8391 3.51571 26.1215 3.32568 25.4038 3.32568C24.6862 3.4207 23.9686 3.70575 23.4902 4.27584ZM24.7341 6.17615C24.7341 5.98612 24.7819 5.74858 24.9254 5.60606C25.069 5.41603 25.2603 5.36852 25.4995 5.32101C25.6909 5.32101 25.9301 5.36852 26.0736 5.51104L37.6033 15.6777C37.7947 15.8202 37.8425 16.0103 37.8903 16.2478C37.8903 16.4378 37.8425 16.6754 37.699 16.8179C37.5555 17.0079 37.3641 17.0554 37.1249 17.1029C36.9335 17.1029 36.6943 17.0554 36.5508 16.9129L25.0211 6.69874C24.8297 6.55621 24.7341 6.36618 24.7341 6.17615Z" fill="#404041"/>
<path fill-rule="evenodd" clip-rule="evenodd" d="M53.8692 2.85077C54.539 3.56339 54.4433 4.70357 53.7257 5.36868L42.196 15.5354C41.4784 16.2005 40.3302 16.1054 39.6604 15.3928C38.9907 14.6802 39.0863 13.54 39.804 12.8749L51.3336 2.70825C52.0513 2.04314 53.1994 2.13815 53.8692 2.85077Z" fill="white"/>
<path d="M54.5865 2.18551C55.1127 2.7556 55.3041 3.46822 55.3041 4.18083C55.2562 4.89345 54.9692 5.55856 54.3951 6.08115L42.9132 16.2003C42.8654 16.2478 42.8654 16.2478 42.8176 16.2478C42.2435 16.7229 41.5259 16.9604 40.8561 16.9129C40.1863 16.8654 39.4687 16.5804 38.9903 16.0578C38.9424 16.0103 38.9424 16.0103 38.8946 15.9628C38.4162 15.3927 38.177 14.6801 38.2248 14.0149C38.2727 13.3023 38.5597 12.6372 39.1338 12.1146L50.6635 1.94797C51.2376 1.42538 51.9552 1.23535 52.6728 1.23535C53.3904 1.33037 54.0602 1.61541 54.5865 2.18551ZM53.3426 4.08582C53.3426 3.89579 53.2947 3.65825 53.1512 3.51573C53.0077 3.32569 52.8163 3.27819 52.5771 3.23068C52.3858 3.23068 52.1466 3.27819 52.003 3.42071L40.4255 13.5874C40.2341 13.7299 40.1863 13.9199 40.1385 14.1575C40.1385 14.3475 40.1863 14.585 40.3298 14.7276C40.4733 14.9176 40.6647 14.9651 40.9039 15.0126C41.0953 15.0126 41.3345 14.9651 41.478 14.8226L53.0077 4.65591C53.1991 4.51339 53.2947 4.27585 53.3426 4.08582Z" fill="#404041"/>
<path fill-rule="evenodd" clip-rule="evenodd" d="M37.7944 11.5444C42.5307 11.5444 46.4058 15.3451 46.4058 20.0958C46.4058 24.7991 42.5785 28.6472 37.7944 28.6472C33.0582 28.6472 29.183 24.8466 29.183 20.0958C29.183 15.3926 33.0582 11.5444 37.7944 11.5444Z" fill="white"/>
<path fill-rule="evenodd" clip-rule="evenodd" d="M36.1678 14.8225C39.9951 14.8225 43.1526 17.9105 43.1526 21.7586C43.1526 25.5593 40.043 28.6948 36.1678 28.6948C32.3406 28.6948 29.183 25.6068 29.183 21.7586C29.183 17.9105 32.2927 14.8225 36.1678 14.8225Z" fill="#EF5253"/>
<path fill-rule="evenodd" clip-rule="evenodd" d="M33.7755 16.2952C36.8852 16.2952 39.3729 18.7656 39.3729 21.8536C39.3729 24.9416 36.8852 27.412 33.7755 27.412C30.6658 27.412 28.1781 24.9416 28.1781 21.8536C28.1781 18.7656 30.7137 16.2952 33.7755 16.2952Z" fill="#DE362E"/>
<path fill-rule="evenodd" clip-rule="evenodd" d="M3.87498 33.2556H70.087C71.5222 33.2556 72.6704 34.3958 72.6704 35.821V44.9425C72.6704 46.3678 71.5222 47.508 70.087 47.508H3.87498C2.43975 47.508 1.29156 46.3678 1.29156 44.9425V35.7735C1.29156 34.3958 2.48759 33.2556 3.87498 33.2556Z" fill="white"/>
<path fill-rule="evenodd" clip-rule="evenodd" d="M5.78859 35.916H68.2211C69.2736 35.916 70.0869 36.7712 70.0869 37.7688V45.18C70.0869 46.2252 69.2258 47.0328 68.2211 47.0328H5.78859C4.73609 47.0328 3.92279 46.1777 3.92279 45.18V37.8163C3.92279 36.7712 4.78393 35.916 5.78859 35.916Z" fill="#EF5253"/>
<path d="M3.87512 31.9253H70.0871C71.1396 31.9253 72.1443 32.3529 72.814 33.0655C73.5316 33.7781 73.9622 34.7283 73.9622 35.7734V44.8949C73.9622 45.9401 73.5316 46.9378 72.814 47.6029C72.0964 48.3155 71.1396 48.743 70.0871 48.743H3.87512C2.82262 48.743 1.81796 48.3155 1.14818 47.6029C0.430569 46.9378 0 45.9876 0 44.8949V35.7734C0 34.7283 0.430569 33.7306 1.14818 33.0655C1.81796 32.3529 2.82262 31.9253 3.87512 31.9253ZM70.0871 34.5382H3.87512C3.54024 34.5382 3.20535 34.6807 2.96614 34.9183C2.72694 35.1558 2.58342 35.4409 2.58342 35.8209V44.9424C2.58342 45.275 2.72694 45.6075 2.96614 45.8451C3.20535 46.0826 3.49239 46.2251 3.87512 46.2251H70.0871C70.422 46.2251 70.7569 46.0826 70.9961 45.8451C71.2353 45.6075 71.3788 45.3225 71.3788 44.9424V35.7734C71.3788 35.4409 71.2353 35.1083 70.9961 34.8708C70.7569 34.6807 70.4698 34.5382 70.0871 34.5382Z" fill="#404041"/>
<path fill-rule="evenodd" clip-rule="evenodd" d="M23.2505 1.47268C21.1455 2.28031 20.093 4.60819 20.8585 6.74604C21.6718 8.83639 24.016 9.88156 26.1688 9.12143C28.2738 8.3138 29.3263 5.98592 28.5609 3.84807C27.7476 1.71022 25.4034 0.665047 23.2505 1.47268Z" fill="white"/>
<path d="M37.7946 10.2617C40.5215 10.2617 43.0092 11.3544 44.7794 13.1597C46.5495 14.9175 47.6977 17.3879 47.6977 20.0958C47.6977 22.8038 46.5973 25.2742 44.7794 27.032C43.0092 28.8373 40.5215 29.9299 37.7946 29.9299C35.0676 29.9299 32.5799 28.8373 30.8098 27.032C29.0397 25.2742 27.8915 22.8038 27.8915 20.0958C27.8915 17.3879 28.9918 14.9175 30.8098 13.1597C32.5799 11.3544 35.0676 10.2617 37.7946 10.2617ZM42.9614 14.965C41.6219 13.6348 39.8039 12.8271 37.7946 12.8271C35.7852 12.8271 33.9673 13.6348 32.6277 14.965C31.2882 16.2952 30.4749 18.1005 30.4749 20.0958C30.4749 22.0912 31.2882 23.8965 32.6277 25.2267C33.9673 26.5569 35.7852 27.3645 37.7946 27.3645C39.8039 27.3645 41.6219 26.5569 42.9614 25.2267C44.301 23.8965 45.1143 22.0912 45.1143 20.0958C45.1143 18.1005 44.2531 16.2952 42.9614 14.965Z" fill="#404041"/>
<path fill-rule="evenodd" clip-rule="evenodd" d="M16.0745 20.5708H58.0311C62.5281 20.5708 66.2119 24.2289 66.2119 28.6946V51.4509C66.2119 55.9166 62.5281 59.5747 58.0311 59.5747H16.0745C11.5774 59.5747 7.89368 55.9166 7.89368 51.4509V28.6946C7.89368 24.2289 11.5774 20.5708 16.0745 20.5708Z" fill="white"/>
<path d="M16.0747 19.2883H58.0313C60.6625 19.2883 63.0067 20.3335 64.729 22.0438C66.4513 23.7541 67.5038 26.1295 67.5038 28.6949V51.4511C67.5038 54.064 66.4513 56.3919 64.729 58.1022C63.0067 59.8125 60.6147 60.8577 58.0313 60.8577H16.0747C13.4434 60.8577 11.0992 59.8125 9.37695 58.1022C7.65468 56.3919 6.60217 54.0165 6.60217 51.4511V28.6949C6.60217 26.0819 7.65468 23.7541 9.37695 22.0438C11.0514 20.3335 13.4434 19.2883 16.0747 19.2883ZM58.0313 21.9013H16.0747C14.2089 21.9013 12.4866 22.6614 11.2428 23.8966C9.99889 25.1318 9.23343 26.8421 9.23343 28.6949V51.4511C9.23343 53.3039 9.99889 55.0142 11.2428 56.2494C12.4866 57.4846 14.2089 58.2447 16.0747 58.2447H58.0313C59.8971 58.2447 61.6193 57.4846 62.8632 56.2494C64.1071 55.0142 64.8725 53.3039 64.8725 51.4511V28.6949C64.8725 26.8421 64.1071 25.1318 62.8632 23.8966C61.6193 22.6614 59.8971 21.9013 58.0313 21.9013Z" fill="#404041"/>
<path fill-rule="evenodd" clip-rule="evenodd" d="M15.9313 25.1316H58.127C60.1842 25.1316 61.8108 26.7944 61.8108 28.7897V51.3084C61.8108 53.3512 60.1364 54.9665 58.127 54.9665H15.9313C13.8741 54.9665 12.2475 53.3037 12.2475 51.3084V28.8372C12.2475 26.7944 13.9219 25.1316 15.9313 25.1316Z" fill="#EF5253"/>
<path fill-rule="evenodd" clip-rule="evenodd" d="M61.8583 31.4502V51.356C61.8583 53.3988 60.1838 55.0141 58.1745 55.0141H15.9309C15.0219 55.0141 14.2086 54.6815 13.5867 54.1589L61.8583 31.4502Z" fill="#DE362E"/>
<path d="M15.9313 24.0391H58.127C59.4666 24.0391 60.6626 24.5616 61.5238 25.4168C62.3849 26.2719 62.9111 27.4596 62.9111 28.7898V51.3085C62.9111 52.6387 62.3849 53.8264 61.5238 54.6816C60.6626 55.5367 59.4666 56.0593 58.127 56.0593H15.9313C14.5917 56.0593 13.3957 55.5367 12.5345 54.6816C11.6734 53.8264 11.1472 52.6387 11.1472 51.3085V28.8373C11.1472 27.5071 11.6734 26.3194 12.5345 25.4643C13.4435 24.6092 14.6396 24.0391 15.9313 24.0391ZM58.127 26.2244H15.9313C15.2136 26.2244 14.5439 26.5095 14.0655 26.9845C13.587 27.4596 13.3 28.1247 13.3 28.8373V51.356C13.3 52.0687 13.587 52.7338 14.0655 53.2088C14.5439 53.6839 15.2136 53.969 15.9313 53.969H58.127C58.8447 53.969 59.5144 53.6839 59.9928 53.2088C60.4713 52.7338 60.7583 52.0687 60.7583 51.356V28.8373C60.7583 28.1247 60.4713 27.4596 59.9928 26.9845C59.5144 26.5095 58.8447 26.2244 58.127 26.2244Z" fill="#404041"/>
<path fill-rule="evenodd" clip-rule="evenodd" d="M49.0848 29.74C51.2377 29.74 52.96 31.4503 52.96 33.5881C52.96 35.726 51.2377 37.4363 49.0848 37.4363C46.932 37.4363 45.2097 35.726 45.2097 33.5881C45.2097 31.4503 46.932 29.74 49.0848 29.74Z" fill="#404041"/>
<path fill-rule="evenodd" clip-rule="evenodd" d="M51.0464 29.4551C52.0032 29.4551 52.8165 30.2152 52.8165 31.2129C52.8165 32.163 52.051 32.9707 51.0464 32.9707C50.0895 32.9707 49.2762 32.2105 49.2762 31.2129C49.2762 30.2627 50.0895 29.4551 51.0464 29.4551Z" fill="white"/>
<path fill-rule="evenodd" clip-rule="evenodd" d="M49.0372 33.5405C49.4677 33.5405 49.8505 33.9206 49.8505 34.3482C49.8505 34.7757 49.4677 35.1558 49.0372 35.1558C48.6066 35.1558 48.2239 34.7757 48.2239 34.3482C48.2239 33.8731 48.6066 33.5405 49.0372 33.5405Z" fill="white"/>
<path fill-rule="evenodd" clip-rule="evenodd" d="M25.1644 29.74C27.3173 29.74 29.0396 31.4503 29.0396 33.5881C29.0396 35.726 27.3173 37.4363 25.1644 37.4363C23.0116 37.4363 21.2893 35.726 21.2893 33.5881C21.2893 31.4503 23.0594 29.74 25.1644 29.74Z" fill="#404041"/>
<path fill-rule="evenodd" clip-rule="evenodd" d="M27.1739 29.4551C28.1307 29.4551 28.944 30.2152 28.944 31.2129C28.944 32.163 28.1786 32.9707 27.1739 32.9707C26.2171 32.9707 25.4038 32.2105 25.4038 31.2129C25.4038 30.2627 26.1693 29.4551 27.1739 29.4551Z" fill="white"/>
<path fill-rule="evenodd" clip-rule="evenodd" d="M25.1642 33.5405C25.5948 33.5405 25.9775 33.9206 25.9775 34.3482C25.9775 34.7757 25.5948 35.1558 25.1642 35.1558C24.7336 35.1558 24.3509 34.7757 24.3509 34.3482C24.3509 33.8731 24.6858 33.5405 25.1642 33.5405Z" fill="white"/>
<path fill-rule="evenodd" clip-rule="evenodd" d="M24.2553 41.0466H50.7592V49.7881H24.2553V41.0466Z" fill="white"/>
<path fill-rule="evenodd" clip-rule="evenodd" d="M24.9728 4.22805C26.3602 4.75064 27.0778 6.3184 26.5516 7.69612C26.0253 9.07385 24.4466 9.78647 23.0592 9.26388C21.6718 8.74129 20.9542 7.17354 21.4804 5.79581C22.0067 4.41808 23.5376 3.70547 24.9728 4.22805Z" fill="#EF5253"/>
<path d="M22.8199 0.332569C21.4325 0.855155 20.4279 1.85282 19.8538 3.08802C19.2797 4.32322 19.2318 5.74846 19.7581 7.12618C20.2843 8.50391 21.289 9.50157 22.5329 10.0717C23.7289 10.5943 25.1641 10.6893 26.5037 10.2142C26.5515 10.2142 26.5993 10.1667 26.6472 10.1667C27.9867 9.6441 28.9914 8.64643 29.5176 7.41123C30.0439 6.22354 30.1396 4.7983 29.6612 3.46808C29.709 3.42058 29.6612 3.37307 29.6612 3.32556C29.1349 1.99534 28.1303 0.997679 26.8864 0.475093C25.6425 -0.0950008 24.2073 -0.190016 22.8199 0.332569ZM22.1023 4.08568C22.3893 3.42058 22.9634 2.85048 23.681 2.56544C24.4465 2.28039 25.212 2.3279 25.8817 2.61294C26.5515 2.89799 27.1256 3.46808 27.4126 4.22821C27.6997 4.98833 27.6518 5.74846 27.3648 6.41357C27.0778 7.07868 26.5037 7.64877 25.7382 7.93382C24.9728 8.21886 24.2073 8.17136 23.5375 7.88631C22.8677 7.60126 22.2937 7.03117 22.0066 6.27104C21.7196 5.55843 21.7674 4.75079 22.1023 4.08568Z" fill="#404041"/>
<path fill-rule="evenodd" clip-rule="evenodd" d="M50.568 1.47268C48.4629 2.28031 47.4104 4.60819 48.1759 6.74604C48.9892 8.83639 51.3334 9.88156 53.4863 9.12143C55.5913 8.3138 56.6438 5.98592 55.8783 3.84807C55.1129 1.71022 52.7208 0.665047 50.568 1.47268Z" fill="white"/>
<path fill-rule="evenodd" clip-rule="evenodd" d="M52.2903 4.22805C53.6776 4.75064 54.3953 6.3184 53.869 7.69612C53.3428 9.07385 51.764 9.78647 50.3766 9.26388C48.9892 8.74129 48.2716 7.17354 48.7979 5.79581C49.3241 4.41808 50.855 3.70547 52.2903 4.22805Z" fill="#EF5253"/>
<path d="M50.1375 0.332569C48.7501 0.855155 47.7454 1.85282 47.1713 3.08802C46.5972 4.32322 46.5494 5.74846 47.0756 7.12618C47.6019 8.50391 48.6066 9.50157 49.8504 10.0717C51.0464 10.5943 52.4817 10.6893 53.8212 10.2142C53.8691 10.2142 53.9169 10.1667 53.9648 10.1667C55.3043 9.6441 56.309 8.64643 56.8352 7.41123C57.3615 6.22354 57.4571 4.7983 56.9787 3.46808C56.9787 3.42058 56.9309 3.37307 56.9309 3.32556C56.4046 1.99534 55.4 0.997679 54.1561 0.475093C52.9601 -0.0950008 51.5249 -0.190016 50.1375 0.332569ZM49.4199 4.08568C49.7069 3.42058 50.281 2.85048 51.0464 2.56544C51.8119 2.28039 52.5774 2.3279 53.2471 2.61294C53.9169 2.89799 54.491 3.46808 54.778 4.22821C55.0651 4.98833 55.0173 5.74846 54.7302 6.41357C54.4432 7.07868 53.8691 7.64877 53.1036 7.93382C52.3382 8.21886 51.5727 8.17136 50.9029 7.88631C50.2332 7.60126 49.6591 7.03117 49.372 6.27104C49.0371 5.55843 49.085 4.75079 49.4199 4.08568Z" fill="#404041"/>
<path fill-rule="evenodd" clip-rule="evenodd" d="M24.2553 46.0349H50.7592V49.788H24.2553V46.0349Z" fill="#C4B098"/>
<path d="M24.3513 39.6692H50.5203C51.1422 39.6692 51.6206 40.1443 51.6206 40.7619V50.1209C51.6206 50.7385 51.1422 51.2136 50.5203 51.2136H24.3513C23.7293 51.2136 23.2509 50.7385 23.2509 50.1209V40.7619C23.2509 40.1443 23.7293 39.6692 24.3513 39.6692ZM49.42 41.8545H25.4038V49.0282H49.42V41.8545Z" fill="#404041"/>
<path fill-rule="evenodd" clip-rule="evenodd" d="M45.3536 40.9043C45.9277 40.9043 46.4061 41.3794 46.4061 41.9495V49.7883C46.4061 50.3583 45.9277 50.8334 45.3536 50.8334C44.7795 50.8334 44.3011 50.3583 44.3011 49.7883V41.9495C44.3011 41.3794 44.7795 40.9043 45.3536 40.9043Z" fill="#404041"/>
<path fill-rule="evenodd" clip-rule="evenodd" d="M40.091 40.9043C40.665 40.9043 41.1435 41.3794 41.1435 41.9495V49.7883C41.1435 50.3583 40.665 50.8334 40.091 50.8334C39.5169 50.8334 39.0385 50.3583 39.0385 49.7883V41.9495C39.0385 41.3794 39.5169 40.9043 40.091 40.9043Z" fill="#404041"/>
<path fill-rule="evenodd" clip-rule="evenodd" d="M34.8285 40.9043C35.4026 40.9043 35.881 41.3794 35.881 41.9495V49.7883C35.881 50.3583 35.4026 50.8334 34.8285 50.8334C34.2544 50.8334 33.776 50.3583 33.776 49.7883V41.9495C33.776 41.3794 34.2544 40.9043 34.8285 40.9043Z" fill="#404041"/>
<path fill-rule="evenodd" clip-rule="evenodd" d="M29.6135 40.9043C30.1876 40.9043 30.666 41.3794 30.666 41.9495V49.7883C30.666 50.3583 30.1876 50.8334 29.6135 50.8334C29.0394 50.8334 28.561 50.3583 28.561 49.7883V41.9495C28.561 41.3794 29.0394 40.9043 29.6135 40.9043Z" fill="#404041"/>
<path d="M100.035 20.1432C99.1262 19.7632 98.1694 19.5256 97.0691 19.5256C95.7774 19.5256 94.677 19.7632 93.7681 20.1907C92.8591 20.6183 92.0936 21.2359 91.4717 21.9485C90.8498 22.6611 90.3713 23.5638 90.0843 24.5615C89.7494 25.5591 89.6059 26.6518 89.6059 27.792C89.6059 29.6923 89.9408 31.2601 90.5627 32.5428C91.1846 33.8255 92.4763 34.8231 94.3421 35.5833L97.4518 36.866C97.9781 37.1035 98.4086 37.2935 98.7435 37.4836C99.0784 37.6736 99.3176 37.9587 99.5568 38.2437C99.7482 38.5763 99.8439 38.9563 99.8917 39.4789C99.9395 40.0015 99.9874 40.6191 99.9874 41.4267C99.9874 42.0918 99.9874 42.7094 99.9395 43.2795C99.8917 43.8496 99.7482 44.3247 99.5568 44.7048C99.3176 45.0848 99.0306 45.4174 98.6 45.6074C98.1694 45.7974 97.5953 45.94 96.8777 45.94C95.7774 45.94 94.9641 45.6074 94.4857 44.9898C94.0073 44.3722 93.7681 43.6596 93.7681 42.852V41.4742H89.4145V43.0895C89.4145 44.0872 89.6059 45.0373 89.9886 45.8925C90.3713 46.7476 90.8976 47.5077 91.5674 48.1728C92.2371 48.8379 93.0026 49.313 93.9116 49.6931C94.8206 50.0731 95.8252 50.2632 96.8777 50.2632C98.2651 50.2632 99.4611 50.0256 100.418 49.5981C101.375 49.123 102.188 48.5054 102.762 47.7453C103.336 46.9851 103.767 46.035 104.006 44.9423C104.245 43.8496 104.389 42.6619 104.389 41.3792C104.389 40.2865 104.341 39.2889 104.197 38.4337C104.102 37.5786 103.862 36.8185 103.575 36.1059C103.241 35.4407 102.762 34.8706 102.188 34.3956C101.566 33.9205 100.801 33.4454 99.8439 33.1129L96.495 31.7826C95.9209 31.5451 95.4903 31.3076 95.1554 31.1175C94.8206 30.88 94.5814 30.6425 94.39 30.3099C94.1986 29.9773 94.1029 29.6448 94.0551 29.2647C94.0073 28.8847 94.0073 28.3621 94.0073 27.792C94.0073 27.2694 94.0551 26.7943 94.1508 26.3192C94.2465 25.8442 94.39 25.4166 94.6292 25.084C94.8684 24.7515 95.1554 24.4664 95.5382 24.2289C95.9209 23.9914 96.3993 23.8964 96.9734 23.8964C98.0737 23.8964 98.887 24.2764 99.3654 24.989C99.8439 25.7016 100.083 26.5568 100.083 27.5545V28.5046H104.437V26.3668C104.437 24.609 103.767 23.0412 102.475 21.711C101.71 21.0459 100.896 20.5233 100.035 20.1432Z" fill="white"/>
<path d="M117.306 42.8043C117.306 43.897 117.067 44.6571 116.54 45.1797C116.014 45.7023 115.392 45.9398 114.627 45.9398C113.861 45.9398 113.239 45.7023 112.713 45.1797C112.187 44.6571 111.948 43.897 111.948 42.8043V19.8105H107.594V43.2319C107.594 44.2296 107.785 45.1322 108.168 45.9873C108.551 46.8425 109.029 47.5551 109.699 48.2202C110.369 48.8853 111.087 49.3604 111.948 49.7405C112.809 50.1205 113.67 50.3105 114.675 50.3105C115.631 50.3105 116.54 50.1205 117.402 49.7405C118.263 49.3604 119.028 48.8853 119.65 48.2202C120.32 47.5551 120.798 46.8425 121.181 45.9873C121.516 45.1322 121.707 44.2296 121.707 43.2319V19.8105H117.354V42.8043H117.306Z" fill="white"/>
<path d="M135.677 35.8207H135.581L129.984 19.8105H125.774V50.0255H130.127V31.64H130.223L134.529 44.6571H136.682L140.987 31.64H141.083V50.0255H145.436V19.8105H141.226L135.677 35.8207Z" fill="white"/>
<path d="M162.037 19.8105H150.316V22.376H162.037V19.8105Z" fill="white"/>
<path d="M154.383 24.7041L147.589 50.0258H151.943L153.235 44.7999H159.167L160.459 50.0258H164.812L158.019 24.7041H154.383ZM154 40.7142L156.153 33.398H156.249L158.401 40.7142H154Z" fill="white"/>
<path d="M164.764 23.8962H169.835V50.0255H174.189V23.8962H179.212V19.8105H164.764V23.8962Z" fill="white"/>
<path d="M194.378 23.7063C193.947 22.7562 193.373 21.996 192.704 21.3784C191.986 20.7608 191.221 20.3333 190.312 20.0007C189.45 19.6682 188.541 19.5256 187.68 19.5256C186.819 19.5256 185.91 19.6682 185.049 20.0007C184.188 20.3333 183.422 20.7608 182.705 21.3784C181.987 21.996 181.413 22.7562 180.983 23.7063C180.552 24.6565 180.361 25.7016 180.361 26.9368V42.8995C180.361 44.1822 180.552 45.2749 180.983 46.1775C181.413 47.0801 181.987 47.8403 182.705 48.4104C183.375 49.028 184.188 49.503 185.049 49.7881C185.91 50.1206 186.771 50.2632 187.68 50.2632C188.541 50.2632 189.45 50.1206 190.312 49.7881C191.173 49.4555 191.986 49.028 192.704 48.4104C193.373 47.7928 193.947 47.0801 194.378 46.1775C194.809 45.2749 195 44.1822 195 42.8995V26.9368C195 25.7016 194.809 24.6565 194.378 23.7063ZM190.646 42.8995C190.646 43.9446 190.359 44.7048 189.785 45.2273C189.211 45.7024 188.494 45.9875 187.728 45.9875C186.915 45.9875 186.245 45.7499 185.671 45.2273C185.097 44.7523 184.81 43.9446 184.81 42.8995V26.9368C184.81 25.8917 185.097 25.1316 185.671 24.609C186.245 24.1339 186.963 23.8488 187.728 23.8488C188.541 23.8488 189.211 24.0864 189.785 24.609C190.359 25.084 190.646 25.8917 190.646 26.9368V42.8995Z" fill="white"/>
<path d="M93.6248 59.9071V56.6291H94.7251V59.9071H93.6248ZM94.7251 56.6291V55.5364H98.0261V56.6291H94.7251ZM94.7251 60.9998V59.9071H99.1265V60.9998H94.7251ZM98.0261 57.7217V56.6291H99.1265V57.7217H98.0261Z" fill="white"/>
<path d="M100.227 59.9071V56.6291H101.327V59.9071H100.227ZM101.327 56.6291V55.5364H104.628V56.6291H101.327ZM101.327 60.9998V59.9071H104.628V60.9998H101.327ZM104.676 59.9071V56.6291H105.776V59.9071H104.676Z" fill="white"/>
<path d="M106.877 59.9071V56.6291H107.977V59.9071H106.877ZM107.977 56.6291V55.5364H111.278V56.6291H107.977ZM107.977 60.9998V59.9071H111.278V60.9998H107.977ZM111.278 59.9071V56.6291H112.378V59.9071H111.278Z" fill="white"/>
<path d="M113.479 60.9998V53.3511H114.579V59.9071H115.68V60.9998H113.479Z" fill="white"/>
<path d="M119.029 60.9998V53.3511H120.129V57.7218H121.229V56.6291H122.33V58.8145H120.129V60.9998H119.029ZM122.33 56.6291V55.5364H123.43V56.6291H122.33ZM122.33 59.9071V58.8145H123.43V59.9071H122.33ZM123.43 60.9998V59.9071H124.53V60.9998H123.43Z" fill="white"/>
<path d="M125.63 54.3964V53.3037H126.731V54.3964H125.63ZM125.63 61V55.5366H126.731V61H125.63Z" fill="white"/>
<path d="M127.831 59.9071V56.6291H128.931V59.9071H127.831ZM128.931 60.9998V59.9071H132.232V56.6291H128.931V55.5364H132.232V53.3511H133.333V60.9998H128.931Z" fill="white"/>
<path d="M134.433 57.7217V56.6291H135.534V57.7217H134.433ZM134.433 60.9998V59.9071H138.835V60.9998H134.433ZM135.581 56.6291V55.5364H139.983V56.6291H135.581ZM135.581 58.8144V57.7217H138.882V58.8144H135.581ZM138.882 59.9071V58.8144H139.983V59.9071H138.882Z" fill="white"/>
<path d="M143.284 59.9071V56.6291H144.384V59.9071H143.284ZM144.384 56.6291V55.5364H147.685V56.6291H144.384ZM144.384 60.9998V59.9071H148.786V60.9998H144.384ZM147.685 57.7217V56.6291H148.786V57.7217H147.685Z" fill="white"/>
<path d="M149.886 59.9071V56.6291H150.986V59.9071H149.886ZM154.335 60.9998V59.9071H153.235V58.8144H154.335V56.6291H151.034V55.5364H155.436V60.9998H154.335ZM150.986 60.9998V59.9071H153.187V60.9998H150.986Z" fill="white"/>
<path d="M156.536 60.9998V55.5364H157.636V56.6291H158.736V57.7217H157.636V60.9998H156.536ZM158.736 56.6291V55.5364H160.937V56.6291H158.736ZM160.937 60.9998V56.6291H162.037V60.9998H160.937Z" fill="white"/>
<path d="M165.338 59.9071V56.6291H166.439V59.9071H165.338ZM166.439 56.6291V55.5364H169.74V56.6291H166.439ZM166.439 60.9998V59.9071H170.84V60.9998H166.439ZM169.787 57.7217V56.6291H170.888V57.7217H169.787Z" fill="white"/>
<path d="M171.988 59.9071V56.6291H173.089V59.9071H171.988ZM173.089 56.6291V55.5364H176.39V56.6291H173.089ZM173.089 60.9998V59.9071H176.39V60.9998H173.089ZM176.39 59.9071V56.6291H177.49V59.9071H176.39Z" fill="white"/>
<path d="M178.591 59.9071V56.6291H179.691V59.9071H178.591ZM179.691 60.9998V59.9071H182.992V56.6291H179.691V55.5364H182.992V53.3511H184.092V60.9998H179.691Z" fill="white"/>
<path d="M185.24 59.9071V56.6291H186.341V57.7217H189.642V56.6291H190.742V58.8144H186.341V59.9071H185.24ZM186.341 56.6291V55.5364H189.642V56.6291H186.341ZM186.341 60.9998V59.9071H190.742V60.9998H186.341Z" fill="white"/>
</g>
<defs>
<clipPath id="clip0">
<rect width="195" height="61" fill="white"/>
</clipPath>
</defs>
</svg>
