<svg width="195" height="61" viewBox="0 0 195 61" fill="none" xmlns="http://www.w3.org/2000/svg">
<g clip-path="url(#clip0)">
<path fill-rule="evenodd" clip-rule="evenodd" d="M24.2077 4.93972C23.538 5.65234 23.6336 6.79253 24.3513 7.45764L35.8809 17.6243C36.5986 18.2894 37.7467 18.1944 38.4165 17.4818C39.0863 16.7692 38.9906 15.629 38.273 14.9639L26.7433 4.74969C26.0257 4.13209 24.8775 4.1796 24.2077 4.93972Z" fill="white"/>
<path d="M23.4903 4.27437C22.9641 4.84447 22.7727 5.55708 22.7727 6.2697C22.8205 6.98232 23.1076 7.64743 23.6817 8.17001L35.1635 18.2892C35.2114 18.3367 35.2114 18.3367 35.2592 18.3367C35.8333 18.8118 36.5509 19.0493 37.2207 19.0018C37.8905 18.9543 38.6081 18.6692 39.0865 18.1466C39.1343 18.0991 39.1343 18.0991 39.1822 18.0516C39.6606 17.4815 39.8998 16.7689 39.852 16.1038C39.8041 15.3912 39.5171 14.7261 38.943 14.2035L27.4133 4.03684C26.8392 3.51425 26.1216 3.32422 25.404 3.32422C24.6863 3.41923 23.9687 3.70428 23.4903 4.27437ZM24.7342 6.17469C24.7342 5.98465 24.782 5.74712 24.9256 5.60459C25.0691 5.41456 25.2604 5.36705 25.4996 5.31955C25.691 5.31955 25.9302 5.36705 26.0737 5.50958L37.6034 15.6762C37.7948 15.8188 37.8426 16.0088 37.8905 16.2463C37.8905 16.4364 37.8426 16.6739 37.6991 16.8164C37.5556 17.0065 37.3642 17.054 37.125 17.1015C36.9336 17.1015 36.6944 17.054 36.5509 16.9114L25.0212 6.69727C24.8299 6.55475 24.7342 6.36472 24.7342 6.17469Z" fill="#404041"/>
<path fill-rule="evenodd" clip-rule="evenodd" d="M53.8692 2.84955C54.5389 3.56217 54.4432 4.70235 53.7256 5.36746L42.1959 15.5341C41.4783 16.1992 40.3301 16.1042 39.6604 15.3916C38.9906 14.679 39.0863 13.5388 39.8039 12.8737L51.3336 2.70703C52.0512 2.04192 53.1994 2.13693 53.8692 2.84955Z" fill="white"/>
<path d="M54.5864 2.18453C55.1126 2.75462 55.304 3.46724 55.304 4.17986C55.2562 4.89247 54.9691 5.55758 54.395 6.08017L42.9132 16.1993C42.8653 16.2468 42.8653 16.2468 42.8175 16.2468C42.2434 16.7219 41.5258 16.9595 40.856 16.9119C40.1862 16.8644 39.4686 16.5794 38.9902 16.0568C38.9424 16.0093 38.9424 16.0093 38.8945 15.9618C38.4161 15.3917 38.1769 14.6791 38.2248 14.014C38.2726 13.3014 38.5596 12.6362 39.1337 12.1137L50.6634 1.94699C51.2375 1.42441 51.9551 1.23438 52.6728 1.23438C53.3904 1.32939 54.0601 1.61444 54.5864 2.18453ZM53.3425 4.08484C53.3425 3.89481 53.2947 3.65727 53.1512 3.51475C53.0076 3.32472 52.8163 3.27721 52.5771 3.2297C52.3857 3.2297 52.1465 3.27721 52.003 3.41973L40.4254 13.5864C40.2341 13.7289 40.1862 13.919 40.1384 14.1565C40.1384 14.3465 40.1862 14.5841 40.3298 14.7266C40.4733 14.9166 40.6647 14.9641 40.9039 15.0116C41.0952 15.0116 41.3344 14.9641 41.4779 14.8216L53.0076 4.65494C53.199 4.51241 53.2947 4.27487 53.3425 4.08484Z" fill="#404041"/>
<path fill-rule="evenodd" clip-rule="evenodd" d="M37.7945 11.543C42.5308 11.543 46.4059 15.3436 46.4059 20.0944C46.4059 24.7976 42.5786 28.6458 37.7945 28.6458C33.0582 28.6458 29.1831 24.8452 29.1831 20.0944C29.1831 15.3911 33.0582 11.543 37.7945 11.543Z" fill="white"/>
<path fill-rule="evenodd" clip-rule="evenodd" d="M36.1679 14.8223C39.9952 14.8223 43.1527 17.9103 43.1527 21.7584C43.1527 25.559 40.043 28.6945 36.1679 28.6945C32.3406 28.6945 29.1831 25.6065 29.1831 21.7584C29.1831 17.9103 32.2928 14.8223 36.1679 14.8223Z" fill="#EF5253"/>
<path fill-rule="evenodd" clip-rule="evenodd" d="M33.7754 16.2949C36.885 16.2949 39.3728 18.7653 39.3728 21.8533C39.3728 24.9413 36.885 27.4117 33.7754 27.4117C30.6657 27.4117 28.178 24.9413 28.178 21.8533C28.178 18.7653 30.7136 16.2949 33.7754 16.2949Z" fill="#DE362E"/>
<path fill-rule="evenodd" clip-rule="evenodd" d="M3.87492 33.2539H70.0869C71.5221 33.2539 72.6703 34.3941 72.6703 35.8193V44.9408C72.6703 46.3661 71.5221 47.5062 70.0869 47.5062H3.87492C2.43969 47.5062 1.2915 46.3661 1.2915 44.9408V35.7718C1.2915 34.3941 2.48753 33.2539 3.87492 33.2539Z" fill="white"/>
<path fill-rule="evenodd" clip-rule="evenodd" d="M5.78865 35.9141H68.2212C69.2737 35.9141 70.087 36.7692 70.087 37.7669V45.1781C70.087 46.2233 69.2258 47.0309 68.2212 47.0309H5.78865C4.73615 47.0309 3.92285 46.1757 3.92285 45.1781V37.8144C3.92285 36.7692 4.78399 35.9141 5.78865 35.9141Z" fill="#EF5253"/>
<path d="M3.87512 31.9238H70.0871C71.1396 31.9238 72.1443 32.3514 72.814 33.064C73.5316 33.7766 73.9622 34.7268 73.9622 35.772V44.8935C73.9622 45.9386 73.5316 46.9363 72.814 47.6014C72.0964 48.314 71.1396 48.7416 70.0871 48.7416H3.87512C2.82262 48.7416 1.81796 48.314 1.14818 47.6014C0.430569 46.9363 0 45.9861 0 44.8935V35.772C0 34.7268 0.430569 33.7291 1.14818 33.064C1.81796 32.3514 2.82262 31.9238 3.87512 31.9238ZM70.0871 34.5368H3.87512C3.54024 34.5368 3.20535 34.6793 2.96614 34.9168C2.72694 35.1544 2.58342 35.4394 2.58342 35.8195V44.941C2.58342 45.2735 2.72694 45.6061 2.96614 45.8436C3.20535 46.0811 3.49239 46.2237 3.87512 46.2237H70.0871C70.422 46.2237 70.7569 46.0811 70.9961 45.8436C71.2353 45.6061 71.3788 45.321 71.3788 44.941V35.772C71.3788 35.4394 71.2353 35.1069 70.9961 34.8693C70.7569 34.6793 70.4698 34.5368 70.0871 34.5368Z" fill="#404041"/>
<path fill-rule="evenodd" clip-rule="evenodd" d="M23.2506 1.4717C21.1456 2.27933 20.0931 4.60722 20.8585 6.74507C21.6718 8.83541 24.016 9.88058 26.1689 9.12046C28.2739 8.31282 29.3264 5.98494 28.5609 3.84709C27.7476 1.70924 25.4034 0.66407 23.2506 1.4717Z" fill="white"/>
<path d="M37.7947 10.2617C40.5216 10.2617 43.0094 11.3544 44.7795 13.1597C46.5496 14.9175 47.6978 17.3879 47.6978 20.0958C47.6978 22.8038 46.5974 25.2742 44.7795 27.032C43.0094 28.8373 40.5216 29.9299 37.7947 29.9299C35.0678 29.9299 32.58 28.8373 30.8099 27.032C29.0398 25.2742 27.8916 22.8038 27.8916 20.0958C27.8916 17.3879 28.9919 14.9175 30.8099 13.1597C32.58 11.3544 35.0678 10.2617 37.7947 10.2617ZM42.9615 14.965C41.622 13.6348 39.804 12.8271 37.7947 12.8271C35.7854 12.8271 33.9674 13.6348 32.6279 14.965C31.2883 16.2952 30.475 18.1005 30.475 20.0958C30.475 22.0912 31.2883 23.8965 32.6279 25.2267C33.9674 26.5569 35.7854 27.3645 37.7947 27.3645C39.804 27.3645 41.622 26.5569 42.9615 25.2267C44.3011 23.8965 45.1144 22.0912 45.1144 20.0958C45.1144 18.1005 44.2532 16.2952 42.9615 14.965Z" fill="#404041"/>
<path fill-rule="evenodd" clip-rule="evenodd" d="M16.0746 20.5703H58.0312C62.5282 20.5703 66.212 24.2284 66.212 28.6941V51.4504C66.212 55.9161 62.5282 59.5742 58.0312 59.5742H16.0746C11.5776 59.5742 7.8938 55.9161 7.8938 51.4504V28.6941C7.8938 24.2284 11.5776 20.5703 16.0746 20.5703Z" fill="white"/>
<path d="M16.0746 19.2871H58.0311C60.6624 19.2871 63.0066 20.3323 64.7289 22.0426C66.4512 23.7528 67.5037 26.1282 67.5037 28.6937V51.4499C67.5037 54.0628 66.4512 56.3907 64.7289 58.101C63.0066 59.8113 60.6146 60.8564 58.0311 60.8564H16.0746C13.4433 60.8564 11.0991 59.8113 9.37683 58.101C7.65455 56.3907 6.60205 54.0153 6.60205 51.4499V28.6937C6.60205 26.0807 7.65455 23.7528 9.37683 22.0426C11.0513 20.3323 13.4433 19.2871 16.0746 19.2871ZM58.0311 21.9H16.0746C14.2088 21.9 12.4865 22.6602 11.2426 23.8954C9.99876 25.1306 9.23331 26.8408 9.23331 28.6937V51.4499C9.23331 53.3027 9.99876 55.013 11.2426 56.2482C12.4865 57.4834 14.2088 58.2435 16.0746 58.2435H58.0311C59.8969 58.2435 61.6192 57.4834 62.8631 56.2482C64.1069 55.013 64.8724 53.3027 64.8724 51.4499V28.6937C64.8724 26.8408 64.1069 25.1306 62.8631 23.8954C61.6192 22.6602 59.8969 21.9 58.0311 21.9Z" fill="#404041"/>
<path fill-rule="evenodd" clip-rule="evenodd" d="M15.9313 25.1309H58.1271C60.1843 25.1309 61.8109 26.7936 61.8109 28.789V51.3077C61.8109 53.3505 60.1364 54.9657 58.1271 54.9657H15.9313C13.8742 54.9657 12.2476 53.303 12.2476 51.3077V28.8365C12.2476 26.7936 13.922 25.1309 15.9313 25.1309Z" fill="#EF5253"/>
<path fill-rule="evenodd" clip-rule="evenodd" d="M61.8583 31.4492V51.355C61.8583 53.3978 60.1838 55.0131 58.1745 55.0131H15.9309C15.0219 55.0131 14.2086 54.6805 13.5867 54.1579L61.8583 31.4492Z" fill="#DE362E"/>
<path d="M15.9313 24.0371H58.1271C59.4666 24.0371 60.6627 24.5597 61.5238 25.4148C62.385 26.27 62.9112 27.4577 62.9112 28.7879V51.3066C62.9112 52.6368 62.385 53.8245 61.5238 54.6796C60.6627 55.5348 59.4666 56.0574 58.1271 56.0574H15.9313C14.5918 56.0574 13.3957 55.5348 12.5346 54.6796C11.6735 53.8245 11.1472 52.6368 11.1472 51.3066V28.8354C11.1472 27.5052 11.6735 26.3175 12.5346 25.4623C13.4436 24.6072 14.6396 24.0371 15.9313 24.0371ZM58.1271 26.2225H15.9313C15.2137 26.2225 14.5439 26.5075 14.0655 26.9826C13.5871 27.4577 13.3001 28.1228 13.3001 28.8354V51.3541C13.3001 52.0667 13.5871 52.7318 14.0655 53.2069C14.5439 53.682 15.2137 53.967 15.9313 53.967H58.1271C58.8447 53.967 59.5145 53.682 59.9929 53.2069C60.4713 52.7318 60.7584 52.0667 60.7584 51.3541V28.8354C60.7584 28.1228 60.4713 27.4577 59.9929 26.9826C59.5145 26.5075 58.8447 26.2225 58.1271 26.2225Z" fill="#404041"/>
<path fill-rule="evenodd" clip-rule="evenodd" d="M49.0848 29.7383C51.2377 29.7383 52.96 31.4486 52.96 33.5864C52.96 35.7243 51.2377 37.4345 49.0848 37.4345C46.932 37.4345 45.2097 35.7243 45.2097 33.5864C45.2097 31.4486 46.932 29.7383 49.0848 29.7383Z" fill="#404041"/>
<path fill-rule="evenodd" clip-rule="evenodd" d="M51.0465 29.4531C52.0033 29.4531 52.8166 30.2132 52.8166 31.2109C52.8166 32.1611 52.0511 32.9687 51.0465 32.9687C50.0897 32.9687 49.2764 32.2086 49.2764 31.2109C49.2764 30.2608 50.0897 29.4531 51.0465 29.4531Z" fill="white"/>
<path fill-rule="evenodd" clip-rule="evenodd" d="M49.0372 33.5391C49.4677 33.5391 49.8505 33.9191 49.8505 34.3467C49.8505 34.7743 49.4677 35.1543 49.0372 35.1543C48.6066 35.1543 48.2239 34.7743 48.2239 34.3467C48.2239 33.8716 48.6066 33.5391 49.0372 33.5391Z" fill="white"/>
<path fill-rule="evenodd" clip-rule="evenodd" d="M25.1644 29.7383C27.3173 29.7383 29.0396 31.4486 29.0396 33.5864C29.0396 35.7243 27.3173 37.4345 25.1644 37.4345C23.0116 37.4345 21.2893 35.7243 21.2893 33.5864C21.2893 31.4486 23.0594 29.7383 25.1644 29.7383Z" fill="#404041"/>
<path fill-rule="evenodd" clip-rule="evenodd" d="M27.1739 29.4531C28.1307 29.4531 28.944 30.2132 28.944 31.2109C28.944 32.1611 28.1786 32.9687 27.1739 32.9687C26.2171 32.9687 25.4038 32.2086 25.4038 31.2109C25.4038 30.2608 26.1693 29.4531 27.1739 29.4531Z" fill="white"/>
<path fill-rule="evenodd" clip-rule="evenodd" d="M25.1641 33.5391C25.5947 33.5391 25.9774 33.9191 25.9774 34.3467C25.9774 34.7743 25.5947 35.1543 25.1641 35.1543C24.7336 35.1543 24.3508 34.7743 24.3508 34.3467C24.3508 33.8716 24.6857 33.5391 25.1641 33.5391Z" fill="white"/>
<path fill-rule="evenodd" clip-rule="evenodd" d="M24.2554 41.0449H50.7593V49.7864H24.2554V41.0449Z" fill="white"/>
<path fill-rule="evenodd" clip-rule="evenodd" d="M24.9729 4.22634C26.3603 4.74893 27.0779 6.31669 26.5516 7.69441C26.0254 9.07214 24.4466 9.78476 23.0592 9.26217C21.6718 8.73958 20.9542 7.17183 21.4805 5.7941C22.0067 4.41637 23.5376 3.70376 24.9729 4.22634Z" fill="#EF5253"/>
<path d="M22.82 0.331593C21.4326 0.854179 20.4279 1.85184 19.8538 3.08704C19.2797 4.32225 19.2319 5.74748 19.7581 7.12521C20.2844 8.50293 21.2891 9.5006 22.5329 10.0707C23.7289 10.5933 25.1642 10.6883 26.5037 10.2132C26.5516 10.2132 26.5994 10.1657 26.6472 10.1657C27.9868 9.64312 28.9915 8.64546 29.5177 7.41025C30.044 6.22256 30.1396 4.79733 29.6612 3.46711C29.7091 3.4196 29.6612 3.37209 29.6612 3.32458C29.135 1.99437 28.1303 0.996702 26.8865 0.474116C25.6426 -0.0959774 24.2074 -0.190993 22.82 0.331593ZM22.1024 4.08471C22.3894 3.4196 22.9635 2.84951 23.6811 2.56446C24.4466 2.27941 25.212 2.32692 25.8818 2.61197C26.5516 2.89701 27.1257 3.46711 27.4127 4.22723C27.6998 4.98736 27.6519 5.74748 27.3649 6.41259C27.0778 7.0777 26.5037 7.64779 25.7383 7.93284C24.9728 8.21789 24.2074 8.17038 23.5376 7.88533C22.8678 7.60029 22.2937 7.03019 22.0067 6.27007C21.7196 5.55745 21.7675 4.74982 22.1024 4.08471Z" fill="#404041"/>
<path fill-rule="evenodd" clip-rule="evenodd" d="M50.568 1.4717C48.4629 2.27933 47.4104 4.60722 48.1759 6.74507C48.9892 8.83541 51.3334 9.88058 53.4863 9.12046C55.5913 8.31282 56.6438 5.98494 55.8783 3.84709C55.1129 1.70924 52.7208 0.66407 50.568 1.4717Z" fill="white"/>
<path fill-rule="evenodd" clip-rule="evenodd" d="M52.2903 4.22634C53.6776 4.74893 54.3953 6.31669 53.869 7.69441C53.3428 9.07214 51.764 9.78476 50.3766 9.26217C48.9892 8.73958 48.2716 7.17183 48.7979 5.7941C49.3241 4.41637 50.855 3.70376 52.2903 4.22634Z" fill="#EF5253"/>
<path d="M50.1374 0.331593C48.75 0.854179 47.7453 1.85184 47.1712 3.08704C46.5971 4.32225 46.5493 5.74748 47.0755 7.12521C47.6018 8.50293 48.6064 9.5006 49.8503 10.0707C51.0463 10.5933 52.4816 10.6883 53.8211 10.2132C53.8689 10.2132 53.9168 10.1657 53.9646 10.1657C55.3042 9.64312 56.3088 8.64546 56.8351 7.41025C57.3613 6.22256 57.457 4.79733 56.9786 3.46711C56.9786 3.4196 56.9308 3.37209 56.9308 3.32458C56.4045 1.99437 55.3999 0.996702 54.156 0.474116C52.96 -0.0959774 51.5247 -0.190993 50.1374 0.331593ZM49.4197 4.08471C49.7068 3.4196 50.2809 2.84951 51.0463 2.56446C51.8118 2.27941 52.5772 2.32692 53.247 2.61197C53.9168 2.89701 54.4909 3.46711 54.7779 4.22723C55.065 4.98736 55.0171 5.74748 54.7301 6.41259C54.443 7.0777 53.8689 7.64779 53.1035 7.93284C52.338 8.21789 51.5726 8.17038 50.9028 7.88533C50.233 7.60029 49.6589 7.03019 49.3719 6.27007C49.037 5.55745 49.0848 4.74982 49.4197 4.08471Z" fill="#404041"/>
<path fill-rule="evenodd" clip-rule="evenodd" d="M24.2554 46.0332H50.7593V49.7863H24.2554V46.0332Z" fill="#C4B098"/>
<path d="M24.3513 39.668H50.5204C51.1423 39.668 51.6207 40.143 51.6207 40.7606V50.1197C51.6207 50.7373 51.1423 51.2124 50.5204 51.2124H24.3513C23.7294 51.2124 23.251 50.7373 23.251 50.1197V40.7606C23.251 40.143 23.7294 39.668 24.3513 39.668ZM49.42 41.8533H25.4038V49.027H49.42V41.8533Z" fill="#404041"/>
<path fill-rule="evenodd" clip-rule="evenodd" d="M45.3535 40.9043C45.9276 40.9043 46.406 41.3794 46.406 41.9495V49.7883C46.406 50.3583 45.9276 50.8334 45.3535 50.8334C44.7794 50.8334 44.301 50.3583 44.301 49.7883V41.9495C44.301 41.3794 44.7794 40.9043 45.3535 40.9043Z" fill="#404041"/>
<path fill-rule="evenodd" clip-rule="evenodd" d="M40.0911 40.9043C40.6652 40.9043 41.1436 41.3794 41.1436 41.9495V49.7883C41.1436 50.3583 40.6652 50.8334 40.0911 50.8334C39.517 50.8334 39.0386 50.3583 39.0386 49.7883V41.9495C39.0386 41.3794 39.517 40.9043 40.0911 40.9043Z" fill="#404041"/>
<path fill-rule="evenodd" clip-rule="evenodd" d="M34.8286 40.9043C35.4027 40.9043 35.8811 41.3794 35.8811 41.9495V49.7883C35.8811 50.3583 35.4027 50.8334 34.8286 50.8334C34.2545 50.8334 33.7761 50.3583 33.7761 49.7883V41.9495C33.7761 41.3794 34.2545 40.9043 34.8286 40.9043Z" fill="#404041"/>
<path fill-rule="evenodd" clip-rule="evenodd" d="M29.6135 40.9043C30.1876 40.9043 30.666 41.3794 30.666 41.9495V49.7883C30.666 50.3583 30.1876 50.8334 29.6135 50.8334C29.0394 50.8334 28.561 50.3583 28.561 49.7883V41.9495C28.561 41.3794 29.0394 40.9043 29.6135 40.9043Z" fill="#404041"/>
<path d="M100.035 20.143C99.1263 19.7629 98.1694 19.5254 97.0691 19.5254C95.7774 19.5254 94.6771 19.7629 93.7681 20.1905C92.8591 20.6181 92.0936 21.2357 91.4717 21.9483C90.8498 22.6609 90.3714 23.5636 90.0843 24.5612C89.7494 25.5589 89.6059 26.6516 89.6059 27.7917C89.6059 29.6921 89.9408 31.2598 90.5627 32.5425C91.1847 33.8252 92.4764 34.8229 94.3422 35.583L97.4518 36.8657C97.9781 37.1033 98.4087 37.2933 98.7435 37.4833C99.0784 37.6734 99.3176 37.9584 99.5568 38.2435C99.7482 38.576 99.8439 38.9561 99.8917 39.4787C99.9396 40.0012 99.9874 40.6188 99.9874 41.4265C99.9874 42.0916 99.9874 42.7092 99.9396 43.2793C99.8917 43.8494 99.7482 44.3245 99.5568 44.7045C99.3176 45.0846 99.0306 45.4171 98.6 45.6072C98.1695 45.7972 97.5954 45.9397 96.8777 45.9397C95.7774 45.9397 94.9641 45.6072 94.4857 44.9896C94.0073 44.372 93.7681 43.6593 93.7681 42.8517V41.474H89.4146V43.0892C89.4146 44.0869 89.6059 45.0371 89.9886 45.8922C90.3714 46.7473 90.8976 47.5075 91.5674 48.1726C92.2372 48.8377 93.0026 49.3128 93.9116 49.6928C94.8206 50.0729 95.8252 50.2629 96.8777 50.2629C98.2651 50.2629 99.4612 50.0254 100.418 49.5978C101.375 49.1227 102.188 48.5051 102.762 47.745C103.336 46.9849 103.767 46.0347 104.006 44.9421C104.245 43.8494 104.389 42.6617 104.389 41.379C104.389 40.2863 104.341 39.2886 104.197 38.4335C104.102 37.5783 103.863 36.8182 103.575 36.1056C103.241 35.4405 102.762 34.8704 102.188 34.3953C101.566 33.9202 100.801 33.4452 99.8439 33.1126L96.495 31.7824C95.9209 31.5449 95.4904 31.3073 95.1555 31.1173C94.8206 30.8798 94.5814 30.6422 94.39 30.3097C94.1987 29.9771 94.103 29.6445 94.0551 29.2645C94.0073 28.8844 94.0073 28.3618 94.0073 27.7917C94.0073 27.2692 94.0551 26.7941 94.1508 26.319C94.2465 25.8439 94.39 25.4164 94.6292 25.0838C94.8684 24.7512 95.1555 24.4662 95.5382 24.2287C95.9209 23.9911 96.3993 23.8961 96.9734 23.8961C98.0738 23.8961 98.8871 24.2762 99.3655 24.9888C99.8439 25.7014 100.083 26.5565 100.083 27.5542V28.5044H104.437V26.3665C104.437 24.6087 103.767 23.041 102.475 21.7107C101.71 21.0456 100.896 20.5231 100.035 20.143Z" fill="#333333"/>
<path d="M117.306 42.8043C117.306 43.897 117.067 44.6571 116.541 45.1797C116.014 45.7023 115.392 45.9398 114.627 45.9398C113.861 45.9398 113.239 45.7023 112.713 45.1797C112.187 44.6571 111.948 43.897 111.948 42.8043V19.8105H107.594V43.2319C107.594 44.2296 107.786 45.1322 108.168 45.9873C108.551 46.8425 109.029 47.5551 109.699 48.2202C110.369 48.8853 111.087 49.3604 111.948 49.7405C112.809 50.1205 113.67 50.3105 114.675 50.3105C115.632 50.3105 116.541 50.1205 117.402 49.7405C118.263 49.3604 119.028 48.8853 119.65 48.2202C120.32 47.5551 120.798 46.8425 121.181 45.9873C121.516 45.1322 121.707 44.2296 121.707 43.2319V19.8105H117.354V42.8043H117.306Z" fill="#333333"/>
<path d="M135.677 35.8207H135.581L129.984 19.8105H125.774V50.0255H130.127V31.64H130.223L134.529 44.6571H136.681L140.987 31.64H141.083V50.0255H145.436V19.8105H141.226L135.677 35.8207Z" fill="#333333"/>
<path d="M162.037 19.8105H150.316V22.376H162.037V19.8105Z" fill="#333333"/>
<path d="M154.383 24.7031L147.589 50.0248H151.943L153.235 44.7989H159.167L160.459 50.0248H164.812L158.019 24.7031H154.383ZM154 40.7132L156.153 33.3971H156.249L158.401 40.7132H154Z" fill="#333333"/>
<path d="M164.764 23.8962H169.835V50.0255H174.189V23.8962H179.212V19.8105H164.764V23.8962Z" fill="#333333"/>
<path d="M194.378 23.7061C193.947 22.7559 193.373 21.9958 192.704 21.3782C191.986 20.7606 191.22 20.333 190.312 20.0005C189.45 19.6679 188.541 19.5254 187.68 19.5254C186.819 19.5254 185.91 19.6679 185.049 20.0005C184.188 20.333 183.422 20.7606 182.705 21.3782C181.987 21.9958 181.413 22.7559 180.983 23.7061C180.552 24.6562 180.361 25.7014 180.361 26.9366V42.8992C180.361 44.1819 180.552 45.2746 180.983 46.1773C181.413 47.0799 181.987 47.84 182.705 48.4101C183.375 49.0277 184.188 49.5028 185.049 49.7878C185.91 50.1204 186.771 50.2629 187.68 50.2629C188.541 50.2629 189.45 50.1204 190.312 49.7878C191.173 49.4553 191.986 49.0277 192.704 48.4101C193.373 47.7925 193.947 47.0799 194.378 46.1773C194.809 45.2746 195 44.1819 195 42.8992V26.9366C195 25.7014 194.809 24.6562 194.378 23.7061ZM190.646 42.8992C190.646 43.9444 190.359 44.7045 189.785 45.2271C189.211 45.7022 188.494 45.9872 187.728 45.9872C186.915 45.9872 186.245 45.7497 185.671 45.2271C185.097 44.752 184.81 43.9444 184.81 42.8992V26.9366C184.81 25.8914 185.097 25.1313 185.671 24.6087C186.245 24.1336 186.963 23.8486 187.728 23.8486C188.541 23.8486 189.211 24.0861 189.785 24.6087C190.359 25.0838 190.646 25.8914 190.646 26.9366V42.8992Z" fill="#333333"/>
<path d="M93.6248 59.9059V56.6278H94.7251V59.9059H93.6248ZM94.7251 56.6278V55.5352H98.0261V56.6278H94.7251ZM94.7251 60.9986V59.9059H99.1265V60.9986H94.7251ZM98.0261 57.7205V56.6278H99.1265V57.7205H98.0261Z" fill="#333333"/>
<path d="M100.227 59.9059V56.6278H101.327V59.9059H100.227ZM101.327 56.6278V55.5352H104.628V56.6278H101.327ZM101.327 60.9986V59.9059H104.628V60.9986H101.327ZM104.676 59.9059V56.6278H105.777V59.9059H104.676Z" fill="#333333"/>
<path d="M106.877 59.9059V56.6278H107.977V59.9059H106.877ZM107.977 56.6278V55.5352H111.278V56.6278H107.977ZM107.977 60.9986V59.9059H111.278V60.9986H107.977ZM111.278 59.9059V56.6278H112.378V59.9059H111.278Z" fill="#333333"/>
<path d="M113.479 60.9984V53.3496H114.579V59.9057H115.679V60.9984H113.479Z" fill="#333333"/>
<path d="M119.029 60.9984V53.3496H120.129V57.7203H121.229V56.6276H122.33V58.813H120.129V60.9984H119.029ZM122.33 56.6276V55.535H123.43V56.6276H122.33ZM122.33 59.9057V58.813H123.43V59.9057H122.33ZM123.43 60.9984V59.9057H124.53V60.9984H123.43Z" fill="#333333"/>
<path d="M125.63 54.3954V53.3027H126.73V54.3954H125.63ZM125.63 60.999V55.5356H126.73V60.999H125.63Z" fill="#333333"/>
<path d="M127.831 59.9057V56.6276H128.931V59.9057H127.831ZM128.931 60.9984V59.9057H132.232V56.6276H128.931V55.535H132.232V53.3496H133.333V60.9984H128.931Z" fill="#333333"/>
<path d="M134.433 57.7205V56.6278H135.534V57.7205H134.433ZM134.433 60.9986V59.9059H138.835V60.9986H134.433ZM135.582 56.6278V55.5352H139.983V56.6278H135.582ZM135.582 58.8132V57.7205H138.883V58.8132H135.582ZM138.883 59.9059V58.8132H139.983V59.9059H138.883Z" fill="#333333"/>
<path d="M143.284 59.9059V56.6278H144.384V59.9059H143.284ZM144.384 56.6278V55.5352H147.685V56.6278H144.384ZM144.384 60.9986V59.9059H148.786V60.9986H144.384ZM147.685 57.7205V56.6278H148.786V57.7205H147.685Z" fill="#333333"/>
<path d="M149.886 59.9059V56.6278H150.986V59.9059H149.886ZM154.335 60.9986V59.9059H153.235V58.8132H154.335V56.6278H151.034V55.5352H155.436V60.9986H154.335ZM150.986 60.9986V59.9059H153.187V60.9986H150.986Z" fill="#333333"/>
<path d="M156.536 60.9986V55.5352H157.636V56.6278H158.736V57.7205H157.636V60.9986H156.536ZM158.736 56.6278V55.5352H160.937V56.6278H158.736ZM160.937 60.9986V56.6278H162.037V60.9986H160.937Z" fill="#333333"/>
<path d="M165.338 59.9059V56.6278H166.438V59.9059H165.338ZM166.438 56.6278V55.5352H169.739V56.6278H166.438ZM166.438 60.9986V59.9059H170.84V60.9986H166.438ZM169.787 57.7205V56.6278H170.888V57.7205H169.787Z" fill="#333333"/>
<path d="M171.989 59.9059V56.6278H173.089V59.9059H171.989ZM173.089 56.6278V55.5352H176.39V56.6278H173.089ZM173.089 60.9986V59.9059H176.39V60.9986H173.089ZM176.39 59.9059V56.6278H177.49V59.9059H176.39Z" fill="#333333"/>
<path d="M178.591 59.9057V56.6276H179.691V59.9057H178.591ZM179.691 60.9984V59.9057H182.992V56.6276H179.691V55.535H182.992V53.3496H184.092V60.9984H179.691Z" fill="#333333"/>
<path d="M185.24 59.9059V56.6278H186.341V57.7205H189.642V56.6278H190.742V58.8132H186.341V59.9059H185.24ZM186.341 56.6278V55.5352H189.642V56.6278H186.341ZM186.341 60.9986V59.9059H190.742V60.9986H186.341Z" fill="#333333"/>
</g>
<defs>
<clipPath id="clip0">
<rect width="195" height="61" fill="white"/>
</clipPath>
</defs>
</svg>
